<?xml version="1.0" encoding="utf-8"?>
<!-- Generator: Adobe Illustrator 23.0.3, SVG Export Plug-In . SVG Version: 6.00 Build 0)  -->
<!DOCTYPE svg PUBLIC "-//W3C//DTD SVG 1.1//EN" "http://www.w3.org/Graphics/SVG/1.1/DTD/svg11.dtd" [
	<!ENTITY ns_extend "http://ns.adobe.com/Extensibility/1.0/">
	<!ENTITY ns_ai "http://ns.adobe.com/AdobeIllustrator/10.0/">
	<!ENTITY ns_graphs "http://ns.adobe.com/Graphs/1.0/">
	<!ENTITY ns_vars "http://ns.adobe.com/Variables/1.0/">
	<!ENTITY ns_imrep "http://ns.adobe.com/ImageReplacement/1.0/">
	<!ENTITY ns_sfw "http://ns.adobe.com/SaveForWeb/1.0/">
	<!ENTITY ns_custom "http://ns.adobe.com/GenericCustomNamespace/1.0/">
	<!ENTITY ns_adobe_xpath "http://ns.adobe.com/XPath/1.0/">
]>
<svg version="1.1" xmlns:x="&ns_extend;" xmlns:i="&ns_ai;" xmlns:graph="&ns_graphs;"
	 xmlns="http://www.w3.org/2000/svg" xmlns:xlink="http://www.w3.org/1999/xlink" x="0px" y="0px" viewBox="0 0 750 750"
	 enable-background="new 0 0 750 750" xml:space="preserve">
<metadata>
	<sfw  xmlns="&ns_sfw;">
		<slices></slices>
		<sliceSourceBounds  bottomLeftOrigin="true" height="11896.298" width="11940" x="-4734" y="-4146.298"></sliceSourceBounds>
	</sfw>
</metadata>
<g id="FILL-BACKGROUND">
	<rect fill="none" width="750" height="750"/>
</g>
<g id="N-DIMENSIONS">
</g>
<g id="AG-DIAGRAM">
</g>
<g id="AG-GUIDES">
</g>
<g id="AG-PEOPLE">
</g>
<g id="AG-DETAIL">
	<g id="POLYLINE_868_">
		<path fill="none" stroke="#FFFFFF" stroke-width="2" stroke-linecap="round" stroke-linejoin="round" stroke-miterlimit="10" d="
			M499.295,204.096c-0.972,4.356-1.529,8.761-1.918,13.204c-0.406,4.637-0.716,9.312-0.318,13.961
			c0.325,3.79,1.133,7.603,3.089,10.907c2.4,4.054,6.091,7.045,9.105,10.603c2.868,3.386,4.154,7.446,6.197,11.31
			c1.911,3.615,4.797,5.72,8.299,7.689c3.952,2.222,7.925,4.338,10.318,8.358c1.099,1.846,1.851,3.857,2.834,5.762
			c0.347,0.673,0.906,1.952,1.846,1.89c0.914-0.06,1.667-1.316,2.133-1.954c2.312-3.164,4.178-6.57,7.704-8.544
			c1.725-0.966,3.616-1.572,5.376-2.464c1.866-0.945,3.093-2.35,3.739-4.343c1.13-3.487,1.317-7.058,3.372-10.204
			c2.402-3.676,5.976-6.322,8.786-9.649c2.316-2.742,3.385-5.764,3.128-9.322c-0.169-2.337-0.663-4.639-0.938-6.964
			c-0.188-1.587-0.372-3.33,0.108-4.885c0.682-2.212,2.945-3.193,4.739-4.352c1.845-1.191,3.23-2.708,4.233-4.66
			c1.903-3.702,2.552-8.046,2.802-12.157c0.496-8.169-0.378-17.503-5.111-24.443c-2.079-3.048-4.98-5.236-8.258-6.857
			c-3.983-1.969-8.361-2.932-12.361-4.833c-1.917-0.911-3.63-2.155-5.44-3.249"/>
	</g>
	<g id="POLYLINE_867_">
		<path fill="none" stroke="#FFFFFF" stroke-width="2" stroke-linecap="round" stroke-linejoin="round" stroke-miterlimit="10" d="
			M575.418,168.742c2.922,0.622,5.785,1.467,8.072,3.486c1.721,1.519,3.029,3.49,4.102,5.503c1.241,2.327,2.221,4.832,2.795,7.408
			c0.615,2.761,0.458,5.556,0.724,8.352c0.309,3.251,1.384,6.37,2.523,9.409"/>
	</g>
	<g id="POLYLINE_866_">
		<path fill="none" stroke="#FFFFFF" stroke-width="2" stroke-linecap="round" stroke-linejoin="round" stroke-miterlimit="10" d="
			M447.975,274.525c-0.247,6.588-0.179,13.776,3.337,19.606c3.9,6.465,11.49,9.231,17.016,13.981
			c3.225,2.772,4.897,6.1,5.842,10.203c0.885,3.847,1.271,8.159,3.735,11.404c2.224,2.928,5.822,4.619,9.103,6.058
			c3.615,1.586,7.317,2.994,10.822,4.821c6.606,3.442,12.12,8.876,15.237,15.694c1.062,2.324,1.9,4.896,1.889,7.479
			c-0.013,2.826-1.532,5.155-2.143,7.841c-0.862,3.785,1.608,7.443,3.261,10.656c1.408,2.737,2.819,5.566,3.362,8.624
			c1.154,6.505-2.958,12.536-5.983,17.928c-1.647,2.935-3.256,6.003-3.874,9.344c-0.662,3.584-0.202,7.296,1.047,10.701
			c1.252,3.413,3.404,6.115,5.475,9.054c1.953,2.771,3.088,5.888,3.732,9.203c0.324,1.669,0.526,3.362,0.604,5.06"/>
	</g>
	<g id="POLYLINE_865_">
		<path fill="none" stroke="#FFFFFF" stroke-width="2" stroke-linecap="round" stroke-linejoin="round" stroke-miterlimit="10" d="
			M501.26,484.367c-2.867,0.931-5.724,1.951-8.746,2.232c-2.941,0.273-5.888-0.113-8.759-0.751
			c-6.405-1.424-12.664-3.932-18.393-7.115c-2.617-1.454-5.164-3.085-7.449-5.027c-2.438-2.072-4.297-4.612-6.457-6.946
			c-0.949-1.025-2.106-2.133-3.586-2.192c-1.13-0.044-2.229,0.492-3.166,1.071c-2.647,1.634-4.817,4.075-6.829,6.41
			c-4.54,5.268-8.754,10.98-11.672,17.32c-0.355,0.772-0.687,1.553-1.008,2.339"/>
	</g>
	<g id="POLYLINE_864_">
		<path fill="none" stroke="#FFFFFF" stroke-width="2" stroke-linecap="round" stroke-linejoin="round" stroke-miterlimit="10" d="
			M340.165,310.206c-4.507-2.303-9.528-3.257-14.572-2.893c-4.466,0.322-9.328,1.6-12.155,5.338
			c-2.769,3.662-3.497,8.782-3.431,13.244c0.075,5.074,1.686,9.614,4.416,13.853c3.07,4.765,6.3,9.133,8.323,14.477
			c1.148,3.034,4.263,15.563,9.789,11.278c1.824-1.414,2.696-4.006,3.306-6.15c0.761-2.67,1.159-5.436,1.444-8.193
			c0.562-5.448,0.581-11.254,2.392-16.484c0.749-2.163,1.853-4.159,3.201-6.004c1.582-2.165,3.513-4.14,4.809-6.502
			c2.432-4.431-1.169-7.958-4.73-10.329C342.06,311.242,341.125,310.7,340.165,310.206z"/>
	</g>
	<g id="POLYLINE_863_">
		<path fill="none" stroke="#FFFFFF" stroke-width="2" stroke-linecap="round" stroke-linejoin="round" stroke-miterlimit="10" d="
			M284.961,399.455c-4.654-7.217-10.015-14.988-11.367-23.661c-0.506-3.246-0.375-7.502,2.801-9.397
			c2.453-1.464,6.166-1.031,8.737-0.088c3.523,1.293,5.482,5.173,7.015,8.35c1.892,3.92,2.737,8.259,4.804,12.091
			c2.034,3.771,4.783,6.974,7.456,10.289c2.426,3.009,4.496,6.786,4.884,10.688c0.722,7.253-4.293,14.205-8.573,19.548
			c-0.729,0.91-1.48,1.802-2.238,2.687"/>
	</g>
	<g id="POLYLINE_862_">
		<path fill="none" stroke="#FFFFFF" stroke-width="2" stroke-linecap="round" stroke-linejoin="round" stroke-miterlimit="10" d="
			M330.046,420.899c-3.103-3.582-2.777-9.448-1.451-13.683c1.388-4.432,4.443-8.399,8.495-10.71
			c1.913-1.091,4.485-1.999,6.534-0.713c2.326,1.46,2.894,4.883,3.242,7.37c0.481,3.434,0.484,6.984,0.053,10.424
			c-0.301,2.401-0.832,5.002-2.347,6.962c-2.812,3.64-9.297,3.981-13.029,1.612C330.99,421.81,330.482,421.388,330.046,420.899z"/>
	</g>
	<g id="POLYLINE_861_">
		<path fill="none" stroke="#FFFFFF" stroke-width="2" stroke-linecap="round" stroke-linejoin="round" stroke-miterlimit="10" d="
			M379.658,398.81c-0.7-1.025-1.805-3.009-3.203-3.147c-1.428-0.14-2.467,2.039-3.013,3.038c-1.661,3.039-2.726,6.432-3.412,9.816
			c-0.67,3.302-0.98,6.686-1,10.053c-0.019,3.161,0.143,6.453,1.157,9.473c1.041,3.099,3.198,5.554,5.769,7.513
			c2.037,1.553,4.475,3.046,7.047,3.476c8.257,1.38,6.939-13.061,6.181-17.673c-1.179-7.172-4.263-14.012-8.015-20.192
			C380.684,400.37,380.183,399.582,379.658,398.81z"/>
	</g>
	<g id="POLYLINE_860_">
		<path fill="none" stroke="#FFFFFF" stroke-width="2" stroke-linecap="round" stroke-linejoin="round" stroke-miterlimit="10" d="
			M358.668,352.224c-2.381-1.586-4.005-4.271-3.969-7.171c0.027-2.175,1.004-5.573,2.943-6.815
			c4.485-2.874,7.434,8.748,7.694,11.381c0.13,1.313,0.129,3.003-1.213,3.699C362.434,354.196,360.119,353.161,358.668,352.224z"/>
	</g>
	<g id="POLYLINE_859_">
		<path fill="none" stroke="#FFFFFF" stroke-width="2" stroke-linecap="round" stroke-linejoin="round" stroke-miterlimit="10" d="
			M394.769,332.141c-1.057-1.487-2.575-3.087-4.554-2.976c-1.693,0.095-3.164,1.36-4.205,2.601c-2.081,2.483-3.175,5.71-3.911,8.819
			c-0.818,3.457-1.289,7.08-1.211,10.637c0.047,2.163,0.394,4.325,1.356,6.281c1.496,3.041,4.295,5.486,7.19,7.178
			c1.29,0.754,2.714,1.423,4.227,1.509c1.304,0.074,2.495-0.384,3.761-0.606c2.424-0.426,5.296,0.514,6.892-1.917
			c1.765-2.689,1.229-6.272,0.289-9.14c-1.214-3.701-2.835-7.294-4.291-10.905c-1.322-3.278-2.652-6.586-4.402-9.664
			C395.556,333.337,395.182,332.726,394.769,332.141z"/>
	</g>
	<g id="POLYLINE_858_">
		<path fill="none" stroke="#FFFFFF" stroke-width="2" stroke-linecap="round" stroke-linejoin="round" stroke-miterlimit="10" d="
			M167.704,359.603c5.295-2.982,10.32-6.356,14.965-10.281c4.688-3.963,8.843-8.51,13.584-12.411c4.8-3.949,10.148-7,15.217-10.561
			c2.29-1.609,4.934-3.703,4.986-6.767c0.053-3.112-2.54-5.894-5.024-7.467c-4.177-2.644-9.463-2.619-14.175-1.845
			c-0.651,0.107-1.299,0.231-1.945,0.366"/>
	</g>
	<g id="POLYLINE_857_">
		<path fill="none" stroke="#FFFFFF" stroke-width="2" stroke-linecap="round" stroke-linejoin="round" stroke-miterlimit="10" d="
			M176.897,422.679c-1.548,0.85-3.903,1.646-4.988-0.297c-1.003-1.793-0.437-4.342,0.189-6.181c1.593-4.678,5.116-8.547,8.91-11.585
			c2.246-1.798,4.666-3.416,7.23-4.726c1.605-0.821,4.073-2.19,5.961-1.702c4.215,1.09-2.642,10.047-3.734,11.453
			c-3.428,4.416-7.408,8.799-11.996,12.037C177.961,422.037,177.44,422.377,176.897,422.679z"/>
	</g>
	<g id="POLYLINE_856_">
		<path fill="none" stroke="#FFFFFF" stroke-width="2" stroke-linecap="round" stroke-linejoin="round" stroke-miterlimit="10" d="
			M389.959,293.659c-1.071,2.446-0.245,5.331,0.669,7.692c1.244,3.217,3.029,6.229,4.88,9.13
			c4.057,6.357,8.655,12.366,12.467,18.879c1.637,2.796,3.1,5.69,4.246,8.724c1.311,3.473,2.217,7.085,3.203,10.659
			c1.819,6.596,4.1,12.814,7.397,18.829c3.876,7.071,7.783,14.121,11.462,21.298c0.39,0.76,0.779,1.52,1.169,2.281"/>
	</g>
	<g id="POLYLINE_855_">
		<path fill="none" stroke="#FFFFFF" stroke-width="2" stroke-linecap="round" stroke-linejoin="round" stroke-miterlimit="10" d="
			M591.05,192.704c1.956-0.83,4.021-1.66,6.157-1.856c2.74-0.251,4.711,1.158,6.185,3.33c1.157,1.704,2.247,3.725,2.673,5.758
			c0.558,2.664,0.019,5.46-0.107,8.141c-0.147,3.123,0.033,6.219,0.566,9.3"/>
	</g>
	<g id="POLYLINE_854_">
		<path fill="none" stroke="#FFFFFF" stroke-width="2" stroke-linecap="round" stroke-linejoin="round" stroke-miterlimit="10" d="
			M215.135,299.94c1.514,0.551,2.954,1.293,4.513,1.718c1.508,0.411,3.052,0.513,4.607,0.546c1.855,0.04,3.718-0.01,5.569,0.144
			c1.159,0.096,2.502,0.22,3.509,0.863c2.428,1.549-0.178,5.818-0.914,7.632c-1.086,2.677-1.975,5.385,0.546,7.535
			c2.396,2.044,5.725,3.029,7.165,6.05c1.419,2.977,1.08,6.624,0.903,9.816c-0.218,3.91-0.448,7.801-0.152,11.714
			c0.289,3.825,0.949,7.625,1.962,11.325c1.868,6.822,5.018,12.953,10.178,17.85c4.045,3.839,9.449,7.37,10.639,13.223
			c0.976,4.798-1.268,10.082-5.552,12.511c-2.687,1.524-5.841,2.148-8.368,3.968c-2.242,1.615-3.178,4.095-3.307,6.79
			c-0.101,2.1,0.138,5.651,2.146,6.926c2.167,1.375,5.814-1.471,7.601-2.434c6.173-3.326,13.174-4.829,20.157-3.777
			c5.451,0.822,10.678,3.439,13.068,8.644c2.508,5.462,2.238,12.133,0.823,17.849c-0.725,2.927-1.804,5.896-3.602,8.348
			c-1.949,2.658-4.735,4.202-7.581,5.724c-3.17,1.695-6.038,3.597-8.618,6.118c-2.373,2.318-4.528,4.85-6.633,7.41
			c-5.197,6.316-10.232,12.847-16.064,18.603c-5.049,4.983-10.786,8.985-17.129,12.146c-6.762,3.371-13.93,5.782-20.911,8.641
			c-6.928,2.838-13.361,6.549-19.021,11.473c-5.771,5.02-10.559,10.989-15.419,16.861c-2.326,2.81-4.628,5.645-7.076,8.351
			c-2.135,2.36-4.396,4.832-7.118,6.528c-1.329,0.828-2.789,1.345-4.378,1.202c-1.468-0.132-2.84-0.726-4.269-1.044"/>
	</g>
</g>
<g id="AG-ANIMALS">
	<g id="POLYLINE_849_">
		
			<path fill="none" stroke="#FFFFFF" stroke-width="2.75" stroke-linecap="round" stroke-linejoin="round" stroke-miterlimit="10" d="
			M284.961,399.455c5.079,6.785,8.633,14.477,11.321,22.486c2.409,7.177,4.105,15.024,2.086,22.508
			c-2.049,7.594-7.428,13.97-12.651,19.631c-5.669,6.144-11.666,12.218-18.156,17.498c-6.006,4.886-12.693,8.636-19.647,11.992
			c-8.089,3.903-16.24,7.662-23.993,12.214c-7.039,4.133-13.798,8.911-19.815,14.438c-5.619,5.161-10.483,11.134-13.204,18.331
			c-2.764,7.311-3.749,15.437-3.845,23.217c-0.024,1.964,0.019,3.941,0.261,5.892c0.192,1.554,0.43,3.657,1.765,4.687
			c1.48,1.141,4.148,1.027,5.908,1.257c1.931,0.252,3.887,0.63,5.627,1.541c3.489,1.826,5.256,5.17,5.643,8.983
			c0.197,1.94,0.221,3.902,0.339,5.849c0.078,1.285,0.125,2.699-0.825,3.7c-1.102,1.162-2.997,1.519-4.497,1.8
			c-1.841,0.344-3.718,0.512-5.585,0.627c-4.053,0.25-8.122,0.287-12.182,0.292c-4.406,0.005-8.821,0.056-13.218-0.273
			c-3.356-0.252-7.261-0.534-10.075-2.599c-2.422-1.778-4.257-5.266-4.716-8.211c-0.564-3.612,0.375-7.418,0.672-11.013
			c0.662-8.022-1.092-15.593-3.239-23.269c-2.238-7.997-4.967-16.112-5.087-24.502c-0.046-3.214,0.388-6.418,1.704-9.371
			c1.478-3.316,3.843-6.177,6.232-8.875c5.946-6.713,12.441-12.944,18.673-19.386c5.657-5.848,10.972-12.056,15.831-18.583
			c4.934-6.629,9.368-13.617,13.269-20.901c1.838-3.432,3.514-6.94,5.144-10.475"/>
	</g>
	<g id="POLYLINE_848_">
		
			<path fill="none" stroke="#FFFFFF" stroke-width="2.75" stroke-linecap="round" stroke-linejoin="round" stroke-miterlimit="10" d="
			M435.451,391.15c1.699,5.486,2.907,11.102,3.718,16.786c0.829,5.809,1.388,11.689,1.519,17.558
			c0.116,5.171-0.147,10.557-1.891,15.475c-1.781,5.024-5.172,9.297-7.474,14.076c-2.422,5.028-3.786,10.395-4.653,15.889
			c-0.908,5.753-1.366,11.592-1.467,17.413c-0.049,2.812-0.02,5.639,0.238,8.441c0.088,0.956,0.523,6.55,2.323,4.992
			c0.83-0.719,1.337-1.945,1.885-2.869c0.151-0.254,0.599-1.253,0.964-1.199c0.349,0.052,0.335,0.871,0.354,1.13
			c0.215,2.918-0.103,5.907-0.156,8.827c-0.105,5.747,0.159,11.497,1.216,17.156c0.542,2.903,1.252,5.781,2.157,8.592
			c0.785,2.44,1.656,4.99,3.05,7.161c0.417,0.649,1.327,2.091,2.194,1.306c0.735-0.666,0.814-2.332,0.98-3.232
			c0.103-0.559,0.237-3.164,0.935-3.456c0.747-0.313,1.42,1.698,1.628,2.203c2.236,5.421,3.461,11.227,5.343,16.771
			c0.408,1.202,0.813,2.506,1.507,3.579c0.809,1.251,1.467,0.766,2.127-0.325c0.469-0.774,1.194-2.657,2.286-1.64
			c0.692,0.645,1.07,1.776,1.41,2.63c2.148,5.394,3.145,11.196,5.438,16.537c1.006,2.344,2.262,4.622,5.001,4.989
			c1.313,0.176,2.414,0.333,3.282,1.411c0.755,0.938,1.222,2.12,1.642,3.238c0.855,2.275,1.386,4.742,2.559,6.888
			c1.365,2.498,3.813,3.363,6.439,3.852c5.694,1.06,11.623,1.145,17.397,1.269c5.844,0.126,11.727,0.07,17.554-0.422
			c2.372-0.2,4.83-0.409,7.108-1.146c2.721-0.881,3.917-2.777,4.625-5.427c0.648-2.425,0.91-4.956,1.037-7.456
			c0.112-2.209,0.194-4.513-0.254-6.695c-0.564-2.75-2.272-4.401-5.026-4.709c-2.68-0.3-5.398,0.148-8.073,0.3
			c-1.909,0.109-4.055,0.188-5.397-1.417c-1.541-1.844-2.335-4.554-3.157-6.769c-1.986-5.351-3.445-10.906-4.101-16.581
			c-0.688-5.942-0.624-11.942-0.665-17.914c-0.045-6.407-0.091-12.813-0.137-19.22c-0.041-5.767-0.166-11.541-0.045-17.308
			c0.123-5.898,0.525-11.878,2.333-17.531c1.692-5.289,4.699-9.892,8.43-13.966c3.907-4.267,8.401-7.951,13.004-11.436
			c4.889-3.701,9.989-7.116,14.995-10.655c4.571-3.231,9.083-6.554,13.253-10.297c4.33-3.887,8.225-8.233,11.688-12.907
			c3.389-4.574,6.402-9.443,8.887-14.567c2.438-5.028,4.213-10.288,5.439-15.736c1.327-5.903,2.106-11.913,3.449-17.813
			c1.32-5.801,3.065-11.494,5.007-17.115c1.918-5.552,4.13-10.999,5.984-16.574c1.845-5.55,3.34-11.197,4.345-16.962
			c1.004-5.76,1.61-11.593,1.914-17.431c0.299-5.749,0.333-11.513,0.055-17.264c-0.276-5.7-0.865-11.365-1.774-16.999"/>
	</g>
	<g id="POLYLINE_847_">
		
			<path fill="none" stroke="#FFFFFF" stroke-width="2.75" stroke-linecap="round" stroke-linejoin="round" stroke-miterlimit="10" d="
			M543.855,174.531c1.133,3.99,1.862,8.369,0.937,12.479c-0.918,4.082-3.812,7.297-5.216,11.183
			c-1.507,4.168-0.909,8.786-1.185,13.125c-0.266,4.167-1.366,8.095-3.275,11.803c-1.922,3.733-4.606,7.792-8.305,9.963
			c-4.31,2.53-8.594-0.149-11.653-3.385c-3.197-3.381-5.594-7.507-7.839-11.554c-2.626-4.735-5.114-9.594-8.079-14.132
			c-2.186-3.345-6.454-7.984-5.068-12.37c0.746-2.36,2.646-4.253,4.43-5.882c1.818-1.66,3.77-3.174,5.776-4.599
			c3.93-2.794,8.094-5.285,12.436-7.386c4.472-2.163,9.152-3.848,14.072-4.624c4.257-0.671,8.58-0.701,12.877-0.563
			c5.821,0.188,11.644,0.436,17.466,0.563c5.374,0.118,10.689-0.157,16.046-0.544c4.338-0.314,8.581-0.19,12.749,1.171
			c4.392,1.434,8.52,3.886,11.966,6.954c3.777,3.363,6.546,7.555,8.057,12.387c1.436,4.589,2.031,9.504,1.91,14.305
			c-0.055,2.166-0.247,4.309,0.252,6.439c0.541,2.31,1.557,4.484,2.311,6.727c0.658,1.959,1.005,3.773,0.283,5.753"/>
	</g>
	<g id="POLYLINE_846_">
		
			<path fill="none" stroke="#FFFFFF" stroke-width="2.75" stroke-linecap="round" stroke-linejoin="round" stroke-miterlimit="10" d="
			M611.586,244.675c-2.075-1.256-3.495-3.443-4.716-5.478c-1.176-1.961-2.506-4.034-2.35-6.411c0.255-3.891,3.187-6.05,6.891-6.373
			c3.55-0.309,7.646,0.407,10.62,2.425c3.201,2.171,3.572,5.698,1.964,9.026C621.992,242.011,616.593,247.544,611.586,244.675z"/>
	</g>
	<g id="POLYLINE_845_">
		
			<path fill="none" stroke="#FFFFFF" stroke-width="2.75" stroke-linecap="round" stroke-linejoin="round" stroke-miterlimit="10" d="
			M593.635,202.9c0.918,2.611,1.935,5.17,3.709,7.333c1.526,1.861,3.461,3.358,5.43,4.722c4.718,3.269,9.924,5.776,14.603,9.101
			c1.901,1.351,3.959,2.928,5.04,5.056"/>
	</g>
	<g id="POLYLINE_844_">
		
			<path fill="none" stroke="#FFFFFF" stroke-width="2.75" stroke-linecap="round" stroke-linejoin="round" stroke-miterlimit="10" d="
			M497.265,201.031c-3.314,3.452-6.624,6.875-9.121,10.99c-2.438,4.018-4.166,8.452-5.773,12.854
			c-1.99,5.452-3.872,10.958-6.077,16.329c-1.89,4.604-4.119,9.076-6.851,13.241c-2.641,4.027-5.769,7.725-9.299,10.999
			c-3.687,3.419-7.763,6.396-12.055,9.009c-4.343,2.644-8.904,4.923-13.577,6.922c-4.787,2.047-9.701,3.826-14.676,5.359
			c-5.24,1.615-10.526,3.042-15.871,4.269c-5.175,1.188-10.402,2.149-15.659,2.886c-5.22,0.732-10.484,1.102-15.754,1.169
			c-3.543,0.045-7.084-0.041-10.624-0.189c-5.842-0.243-11.683-0.486-17.525-0.73c-8.016-0.334-16.033-0.667-24.049-1.001
			c-6.325-0.263-12.65-0.527-18.975-0.79c-2.909-0.121-5.815-0.217-8.725-0.294c-5.814-0.155-11.628-0.366-17.444-0.434
			c-5.496-0.064-10.994-0.127-16.488,0.06c-5.279,0.179-10.55,0.493-15.793,1.149c-5.398,0.675-10.751,1.7-15.999,3.139
			c-4.912,1.347-9.728,3.043-14.407,5.055c-4.676,2.011-9.227,4.347-13.518,7.088c-4.105,2.623-8.044,5.637-11.282,9.296
			c-3.161,3.572-5.369,7.772-7.045,12.214c-1.844,4.886-3.229,9.929-5.151,14.788c-1.865,4.715-4.101,9.29-6.792,13.59
			c-2.686,4.293-5.839,8.282-9.443,11.841c-1.886,1.863-3.886,3.602-5.897,5.327c-1.013,0.868-2.04,1.72-3.054,2.587
			c-0.45,0.385-2.462,1.742-2.404,2.366c0.055,0.596,2.485-0.397,2.869-0.523c1.173-0.384,2.342-0.786,3.542-1.081
			c1.63-0.4,4.307-0.857,3.502,1.725c-0.61,1.958-1.896,3.753-3.017,5.443c-1.585,2.39-3.264,4.719-4.911,7.066
			c-1.355,1.931-2.731,3.871-3.856,5.948c-0.433,0.8-1.175,1.985-1.022,2.913c0.149,0.906,1.13,0.952,1.883,0.992
			c0.923,0.048,2.089-0.109,2.932,0.361c1.036,0.578,0.779,1.915,0.543,2.883c-0.475,1.948-1.376,3.803-2.234,5.605
			c-1.166,2.447-2.439,4.843-3.578,7.303c-0.506,1.093-2.655,4.94-0.468,5.156c2.02,0.2,4.005-0.701,4.342,2.117
			c0.244,2.042-0.205,4.202-0.596,6.195c-0.969,4.94-2.744,9.771-3.43,14.756c-0.109,0.79-0.3,2.266,0.868,1.517
			c1.045-0.67,1.901-1.803,2.769-2.67c0.595-0.594,1.544-1.768,2.467-1.821c0.876-0.05,1.085,1.011,1.196,1.685
			c0.319,1.941,0.132,4.01-0.007,5.959c-0.232,3.246-0.501,6.49-0.737,9.736c-0.171,2.35-0.302,4.707-0.368,7.063
			c-0.065,2.333-0.2,4.808,0.257,7.11c0.128,0.647,0.356,1.782,1.219,1.362c0.859-0.418,1.474-1.769,2.055-2.483
			c0.608-0.745,1.268-1.297,1.654-0.095c0.283,0.882,0.327,1.87,0.407,2.786c0.224,2.559,0.308,5.178,0.872,7.694
			c0.482,2.15,1.475,3.528,3.43,4.531c2.037,1.045,3.082,2.398,3.587,4.69c0.372,1.688,0.44,3.463,0.261,5.178"/>
	</g>
	<g id="POLYLINE_840_">
		
			<path fill="none" stroke="#FFFFFF" stroke-width="2.75" stroke-linecap="round" stroke-linejoin="round" stroke-miterlimit="10" d="
			M208.7,438.938c1.726-3.158,3.495-6.289,4.629-9.72c1.06-3.205,1.586-6.543,1.979-9.887c0.248-2.114,0.455-4.234,0.739-6.343
			c0.064-0.472,0.079-1.661,0.395-2.028c0.295-0.342,0.259-0.274,0.512,0.08c0.261,0.366,0.353,0.969,0.502,1.381
			c0.158,0.434,0.453,1.641,1.092,1.593c0.653-0.05,1.031-1.367,1.201-1.835c0.472-1.301,0.757-2.677,0.991-4.038
			c1.227-7.137,0.372-14.301-0.129-21.459c-0.037-0.524-0.498-3.86,0.349-3.901c0.873-0.042,2.089,2.865,2.421,3.505
			c0.705,1.361,1.271,3.006,2.258,4.199c1.11,1.34,1.134-1.848,1.177-2.494c0.237-3.573,0.431-7.104,1.408-10.57
			c0.86-3.052,2.177-5.943,3.663-8.736c0.409-0.769,0.834-1.529,1.261-2.288"/>
	</g>
	<g id="POLYLINE_839_">
		
			<path fill="none" stroke="#FFFFFF" stroke-width="2.75" stroke-linecap="round" stroke-linejoin="round" stroke-miterlimit="10" d="
			M294.309,453.279c3.027,4,6.798,7.742,10.718,10.873c0.431,0.344,1.89,1.719,2.542,1.297c0.602-0.389-0.009-2.134-0.125-2.666
			c-0.168-0.775-0.609-1.967-0.359-2.766c0.278-0.884,1.235-0.551,1.89-0.303c2.412,0.914,4.661,2.458,6.893,3.718
			c2.083,1.175,4.207,2.287,6.385,3.275c4.812,2.182,9.872,3.875,14.992,5.171c2.317,0.587,4.706,1.184,7.099,1.345
			c0.61,0.041,2.233,0.195,1.503-0.767c-0.621-0.819-1.996-1.404-2.843-1.925c-0.453-0.279-1.039-0.543-1.377-0.963
			c0.618-0.342,2.113,0.371,2.768,0.567c1.775,0.529,3.547,1.066,5.321,1.599c2.491,0.749,4.99,1.481,7.509,2.128
			c5.188,1.332,10.444,2.151,15.796,2.42c5.668,0.285,11.304,0.418,16.93,1.24c5.783,0.845,11.485,2.138,17.131,3.633
			c5.382,1.425,10.697,3.162,15.885,5.182c0.754,0.294,1.505,0.596,2.258,0.894"/>
	</g>
	<g id="POLYLINE_838_">
		
			<path fill="none" stroke="#FFFFFF" stroke-width="2.75" stroke-linecap="round" stroke-linejoin="round" stroke-miterlimit="10" d="
			M223.709,505.905c-6.33,5.502-12.119,11.402-15.977,18.942c-3.965,7.748-6.218,16.433-7.791,24.955
			c-0.772,4.181-1.403,8.427-1.586,12.679c-0.144,3.344-0.081,7.241,2.919,9.385c3.29,2.351,7.637,2.908,10.449,6.006
			c2.324,2.561,2.294,6.303,2.111,9.546c-0.1,1.773-0.01,3.871-0.673,5.562c-0.567,1.445-1.897,2.209-3.307,2.677
			c-3.31,1.098-6.921,0.759-10.343,0.612c-1.27-0.055-2.539-0.109-3.809-0.164"/>
	</g>
	<g id="POLYLINE_837_">
		
			<path fill="none" stroke="#FFFFFF" stroke-width="2.75" stroke-linecap="round" stroke-linejoin="round" stroke-miterlimit="10" d="
			M576.421,393.471c-3.089,8.633-5.894,17.493-9.774,25.816c-3.608,7.74-8.973,13.895-15.401,19.439
			c-6.916,5.964-14.435,11.247-21.015,17.596c-5.57,5.374-10.211,11.672-12.472,19.153c-2.42,8.007-2.572,16.605-2.564,24.903
			c0.005,5.058,0.095,10.124-0.06,15.18c-0.15,4.909-0.684,9.792-1.117,14.682c-0.776,8.765-0.045,17.223,2.106,25.755
			c0.531,2.109,1.132,4.204,1.841,6.261c0.545,1.58,1.148,3.22,2.222,4.527c2.216,2.697,6.223,3.367,9.493,3.798
			c1.993,0.263,4.145,0.224,6.057,0.916c1.92,0.696,2.79,2.314,3.233,4.229c0.357,1.542,0.476,3.136,0.57,4.712
			c0.148,2.488,0.329,4.983,0.394,7.475c0.048,1.827,0.145,4.017-0.767,5.674c-0.742,1.347-2.154,1.948-3.583,2.286
			c-3.906,0.925-8.166,0.671-12.141,0.509c-2.309-0.094-4.616-0.226-6.923-0.35"/>
	</g>
	<g id="POLYLINE_836_">
		
			<path fill="none" stroke="#FFFFFF" stroke-width="2.75" stroke-linecap="round" stroke-linejoin="round" stroke-miterlimit="10" d="
			M622.253,240.639c-0.784,5.39-2.146,10.411-6.035,14.413c-4.342,4.469-10.316,7.29-16.238,8.977
			c-6.654,1.896-13.592,2.639-20.459,3.282c-7.043,0.659-14.159,1.128-21.235,1.163c-6.416,0.031-12.67-0.528-18.739-2.72
			c-0.797-0.288-1.586-0.593-2.375-0.9"/>
	</g>
</g>
<g id="AG-OUTLINE">
	<g id="POLYLINE_704_">
		
			<path fill="none" stroke="#FFFFFF" stroke-width="3.5" stroke-linecap="round" stroke-linejoin="round" stroke-miterlimit="10" d="
			M614.802,222.346c1.492-4.094-1.53-8.3-2.523-12.194c-0.538-2.108-0.401-4.205-0.333-6.357c0.067-2.144-0.019-4.289-0.244-6.422
			c-0.511-4.843-1.669-9.78-4.171-14.004c-2.339-3.948-5.739-7.204-9.562-9.706c-3.654-2.392-7.739-4.187-12.066-4.888
			c-4.536-0.735-9.132-0.089-13.678,0.198c-9.964,0.629-19.961-0.218-29.925-0.426c-4.594-0.096-9.208,0.067-13.716,1.029
			c-4.683,0.999-9.137,2.825-13.388,5.005c-4.159,2.133-8.162,4.602-11.922,7.378c-1.845,1.362-3.649,2.802-5.305,4.391
			c-1.78,1.708-3.697,3.793-4.037,6.34c-0.277,2.077,0.69,4.046,1.711,5.786c0.332,0.566,1.689,2.18,1.519,2.662
			c-0.195,0.552-1.203,1.253-1.608,1.675c-0.37,0.386-0.743,0.769-1.111,1.158c-3.05,3.226-5.744,6.725-7.771,10.688
			c-4.541,8.879-7.001,18.679-10.917,27.828c-3.61,8.437-8.491,16.225-15.186,22.56c-6.836,6.469-15.043,11.36-23.58,15.236
			c-9.035,4.102-18.549,7.119-28.156,9.553c-9.479,2.402-19.179,4.257-28.945,4.933c-8.059,0.558-16.108,0.18-24.165-0.156
			c-14.198-0.591-28.396-1.182-42.594-1.773c-8.349-0.348-16.691-0.683-25.044-0.905c-10.351-0.276-20.701-0.563-31.055-0.192
			c-9.886,0.354-19.767,1.469-29.342,4.02c-9.316,2.481-18.432,6.165-26.708,11.129c-7.598,4.558-14.523,10.292-18.458,18.393
			c-2.151,4.428-3.487,9.194-5.062,13.842c-1.548,4.569-3.368,9.047-5.577,13.338c-2.185,4.242-4.754,8.294-7.745,12.015
			c-3.113,3.873-6.718,7.222-10.474,10.457c-1.763,1.519-3.905,2.923-5.399,4.721c-0.932,1.122,0.808,0.504,1.389,0.319
			c1.205-0.383,2.396-0.811,3.61-1.164c1.031-0.3,3.825-1.332,4.624-0.148c0.854,1.267-1.343,4.325-1.979,5.35
			c-2.594,4.178-5.657,8.044-8.327,12.173c-0.778,1.203-3.008,4.024-2.514,5.596c0.457,1.455,3.473,0.625,4.583,1.091
			c1.779,0.747,0.701,3.35,0.205,4.692c-0.777,2.105-1.794,4.115-2.789,6.123c-1.101,2.221-2.28,4.429-3.207,6.73
			c-0.305,0.758-1.02,2.148-0.657,2.973c0.356,0.811,1.602,0.498,2.293,0.455c2.162-0.133,2.988,0.858,3.015,3.067
			c0.023,1.954-0.362,3.915-0.748,5.822c-0.96,4.732-2.613,9.363-3.312,14.14c-0.093,0.636-0.421,2.151,0.628,1.769
			c0.916-0.334,1.792-1.592,2.452-2.264c0.903-0.92,3.3-3.81,4.065-1.338c0.561,1.811,0.289,4.001,0.18,5.855
			c-0.164,2.807-0.417,5.611-0.629,8.414c-0.343,4.529-0.714,9.103-0.523,13.647c0.034,0.802,0.073,5.043,1.692,3.789
			c0.701-0.543,2.705-4.494,3.462-2.503c0.763,2.007,0.565,4.645,0.757,6.734c0.18,1.953,0.334,4.159,1.241,5.935
			c0.924,1.809,2.688,2.157,4.208,3.27c1.526,1.117,2.055,3.131,2.307,4.92c0.119,0.844,0.169,1.698,0.16,2.55
			c-0.004,0.432,0.092,1.166-0.087,1.568c-0.23,0.514-1.042,1.066-1.432,1.466c-1.699,1.74-3.392,3.487-5.045,5.271
			c-3.047,3.291-6.243,6.736-8.171,10.833c-3.633,7.724-1.46,17.154,0.619,25.01c2.493,9.421,6.17,18.935,6.025,28.818
			c-0.064,4.423-1.168,8.837-0.997,13.251c0.137,3.542,2.123,7.807,5.107,9.831c3.493,2.37,8.458,2.398,12.514,2.573
			c4.999,0.216,10.012,0.139,15.014,0.074c2.458-0.032,4.909-0.145,7.365-0.227c2.395-0.081,4.824,0.195,7.223,0.256
			c3.042,0.078,7.83,0.287,9.99-2.376c1.183-1.459,1.073-3.753,1.189-5.518c0.122-1.838,0.221-3.693,0.015-5.529
			c-0.221-1.974-0.844-3.837-2.259-5.295c-1.67-1.721-3.924-2.717-6.08-3.676c-1.777-0.791-3.772-1.519-5.152-2.953
			c-1.326-1.377-1.759-3.286-1.908-5.136c-0.357-4.438,0.38-9.05,1.092-13.42c1.524-9.347,3.854-18.934,8.151-27.426
			c2.065-4.081,4.697-7.844,7.769-11.229c3.031-3.339,6.394-6.834,10.315-9.088c8.765-5.038,18.111-8.917,27.058-13.599
			c8.359-4.374,15.688-9.853,22.448-16.427c6.825-6.637,13.915-13.377,19.091-21.429c3.027,4,6.798,7.742,10.718,10.873
			c0.431,0.344,1.89,1.719,2.542,1.297c0.602-0.389-0.009-2.134-0.125-2.666c-0.168-0.775-0.609-1.967-0.359-2.766
			c0.278-0.884,1.235-0.551,1.89-0.303c2.412,0.914,4.661,2.458,6.893,3.718c2.083,1.175,4.207,2.287,6.385,3.275
			c4.812,2.182,9.872,3.875,14.992,5.171c2.317,0.587,4.706,1.184,7.099,1.345c0.61,0.041,2.233,0.195,1.503-0.767
			c-0.621-0.819-1.996-1.404-2.843-1.925c-0.453-0.279-1.039-0.543-1.377-0.963c0.706-0.391,2.585,0.512,3.347,0.741
			c1.834,0.551,3.667,1.109,5.503,1.654c3.027,0.898,6.064,1.773,9.14,2.488c6.19,1.439,12.446,1.812,18.775,2.064
			c6.412,0.255,12.725,1.031,19.011,2.331c6.443,1.332,12.817,3.04,19.052,5.14c1.491,0.502,2.978,1.018,4.45,1.572
			c0.763,0.287,1.528,0.57,2.287,0.869c0.505,0.199,1.023,0.38,1.519,0.601c0.51,0.228,0.417,0.092,0.506,0.57
			c0.13,0.699-0.028,1.564-0.031,2.278c-0.003,0.8,0.004,1.6,0.02,2.4c0.032,1.542,0.098,3.085,0.243,4.62
			c0.096,1.018,0.575,6.77,2.484,4.705c0.865-0.936,1.341-2.185,2.045-3.233c1.018-1.517,1.008,0.591,1.015,1.43
			c0.051,6.467-0.447,12.871,0.206,19.329c0.619,6.12,1.987,12.333,4.335,18.031c0.389,0.943,2.752,6.609,4.086,4.436
			c0.704-1.146,0.767-2.865,1.006-4.155c0.122-0.656,0.362-2.996,1.356-1.954c0.772,0.808,1.148,2.283,1.519,3.303
			c0.464,1.277,0.885,2.571,1.285,3.869c1.029,3.334,1.991,6.69,3.038,10.019c0.321,1.02,2.033,7.418,3.693,5.413
			c0.562-0.678,1.285-3.146,2.49-2.501c0.818,0.437,1.287,1.96,1.606,2.752c2.309,5.743,3.208,12.036,5.926,17.619
			c0.574,1.179,1.272,2.435,2.351,3.222c1.282,0.935,2.874,0.559,4.256,1.185c2.32,1.05,3.1,4.871,3.829,7.045
			c0.929,2.771,1.816,5.69,4.724,6.981c2.215,0.984,4.774,1.217,7.156,1.47c6.487,0.688,13.052,0.818,19.571,0.776
			c3.102-0.02,6.205-0.11,9.301-0.296c1.397-0.084,2.825-0.33,4.22-0.286c1.728,0.055,3.455,0.199,5.182,0.273
			c3.219,0.139,6.453,0.257,9.672,0.048c2.086-0.136,4.744-0.271,6.436-1.67c2.094-1.732,1.767-5.249,1.662-7.674
			c-0.135-3.125-0.211-6.31-0.607-9.415c-0.286-2.247-0.813-4.864-3.065-5.919c-2.494-1.169-5.608-0.911-8.281-1.382
			c-2.381-0.419-5.031-1.047-6.908-2.66c-1.888-1.623-2.684-4.163-3.427-6.451c-1.903-5.866-3.223-12.013-3.769-18.159
			c-0.595-6.701,0.227-13.394,0.827-20.064c0.569-6.316,0.534-12.627,0.527-18.962c-0.006-6.383-0.028-12.771,0.703-19.123
			c0.651-5.658,1.994-11.22,4.69-16.27c2.566-4.807,6.135-8.967,10.063-12.711c4.957-4.725,10.452-8.879,15.778-13.17
			c4.499-3.624,8.942-7.412,12.747-11.777c3.921-4.498,6.717-9.679,8.999-15.168c2.63-6.328,4.844-12.83,7.152-19.28
			c1.898-5.304,3.45-10.615,4.46-16.167c1.201-6.598,2.338-13.177,4.138-19.644c1.747-6.279,3.941-12.403,6.195-18.513
			c2.234-6.059,4.432-12.119,5.984-18.397c1.515-6.128,2.457-12.379,3.039-18.661c0.588-6.342,0.787-12.717,0.662-19.085
			c-0.122-6.224-0.581-12.456-1.482-18.617c-0.085-0.58-0.604-2.191-0.421-2.708c0.122-0.345,1.375-0.504,1.818-0.628
			c1.423-0.397,2.828-0.857,4.208-1.383c2.659-1.015,5.22-2.29,7.597-3.858c4.096-2.703,7.51-6.271,9.145-10.969
			c0.429-1.234,0.747-2.506,1.005-3.786c0.285-1.412,0.259-2.975,1.085-4.155c1.356-1.938,2.5-4.355,2.178-6.783
			c-0.146-1.103-0.615-2.118-1.34-2.961c-0.426-0.496-0.964-0.866-1.342-1.39c-0.382-0.529-0.707-1.069-1.144-1.561
			C619.342,225.262,617.034,223.766,614.802,222.346z"/>
	</g>
</g>
</svg>
